# Blender 4.4.3
# www.blender.org
mtllib bballhoop.mtl
o Hoop.003
v -0.205927 8.836124 -0.248102
v -0.205927 9.117397 -0.248102
v -0.205927 8.836124 0.145677
v -0.205927 9.117397 0.145677
v -0.685696 8.649877 -0.291097
v -0.685696 9.129645 -0.291097
v -0.685696 8.649877 0.188672
v -0.685696 9.129645 0.188672
v -5.119264 0.009622 -0.535450
v -5.024970 9.974145 -0.446654
v -5.119264 0.009622 0.433023
v -5.024970 9.974145 0.344228
v -4.090816 0.009622 -0.535450
v -4.185112 9.974145 -0.446654
v -4.090816 0.009622 0.433023
v -4.185112 9.974145 0.344228
v -0.898790 8.088652 -3.361389
v -0.662493 9.194980 -1.343595
v -0.898790 8.088652 3.258963
v -0.662493 9.194980 1.241169
v -0.898790 12.822029 -3.361388
v -0.662494 11.043018 -1.343595
v -0.898791 12.822029 3.258964
v -0.662494 11.043018 1.241170
v -0.662493 8.088652 -3.361389
v -0.662494 8.088652 3.258963
v -0.662494 12.822029 3.258964
v -0.662494 12.822029 -3.361388
v -0.662493 8.171807 -3.245083
v -0.662494 8.171807 3.142658
v -0.662494 12.738873 3.142658
v -0.662494 12.738873 -3.245083
v -0.662493 9.084939 -1.497503
v -0.662494 9.084939 1.395078
v -0.662494 11.153059 1.395078
v -0.662494 11.153059 -1.497503
v -0.769087 8.745651 -0.817661
v -0.769087 10.417979 -0.817661
v -0.769087 8.745651 0.715236
v -0.769087 10.417979 0.715236
v -5.560157 9.269741 -0.562997
v -5.560157 10.386411 -0.562997
v -5.560157 9.269741 0.460571
v -5.560157 10.386411 0.460571
v 0.626218 9.139549 0.895520
v 0.800296 9.139549 0.878375
v 0.967684 9.139549 0.827598
v 1.121950 9.139549 0.745141
v 1.257166 9.139549 0.634173
v 1.368134 9.139549 0.498957
v 1.450591 9.139549 0.344691
v 1.501367 9.139549 0.177303
v 1.518513 9.139549 0.003225
v 1.501367 9.139549 -0.170853
v 1.450591 9.139549 -0.338242
v 1.368134 9.139549 -0.492508
v 1.257166 9.139549 -0.627723
v 1.121951 9.139549 -0.738691
v 0.967685 9.139549 -0.821148
v 0.800296 9.139549 -0.871925
v 0.626218 9.139549 -0.889070
v 0.452140 9.139549 -0.871925
v 0.284751 9.139549 -0.821148
v 0.130485 9.139549 -0.738691
v -0.004730 9.139549 -0.627723
v -0.115698 9.139549 -0.492508
v -0.198155 9.139549 -0.338242
v -0.248932 9.139549 -0.170853
v -0.266077 9.139549 0.003225
v -0.248932 9.139549 0.177303
v -0.198155 9.139549 0.344691
v -0.115698 9.139549 0.498957
v -0.004730 9.139549 0.634172
v 0.130485 9.139549 0.745141
v 0.284751 9.139549 0.827598
v 0.452140 9.139549 0.878374
v 0.626218 9.016012 0.895520
v 0.800296 9.016012 0.878375
v 0.967684 9.016012 0.827598
v 1.121950 9.016012 0.745141
v 1.257166 9.016012 0.634173
v 1.368134 9.016012 0.498957
v 1.450591 9.016012 0.344691
v 1.501367 9.016012 0.177303
v 1.518513 9.016012 0.003225
v 1.501367 9.016012 -0.170853
v 1.450591 9.016012 -0.338242
v 1.368134 9.016012 -0.492508
v 1.257166 9.016012 -0.627723
v 1.121951 9.016012 -0.738691
v 0.967685 9.016012 -0.821148
v 0.800296 9.016012 -0.871925
v 0.626218 9.016012 -0.889070
v 0.452140 9.016012 -0.871925
v 0.284751 9.016012 -0.821148
v 0.130485 9.016012 -0.738691
v -0.004730 9.016012 -0.627723
v -0.115698 9.016012 -0.492508
v -0.198155 9.016012 -0.338242
v -0.248932 9.016012 -0.170853
v -0.266077 9.016012 0.003225
v -0.248932 9.016012 0.177303
v -0.198155 9.016012 0.344691
v -0.115698 9.016012 0.498957
v -0.004730 9.016012 0.634172
v 0.130485 9.016012 0.745141
v 0.284751 9.016012 0.827598
v 0.452140 9.016012 0.878374
v 0.284751 8.873080 -0.821148
v 0.130485 8.873080 -0.738691
v -0.004730 8.873080 -0.627723
v -0.115698 8.873080 -0.492508
v -0.198155 8.873080 -0.338242
v -0.248932 8.873080 -0.170853
v -0.266077 8.873080 0.003225
v -0.248932 8.873080 0.177303
v -0.198155 8.873080 0.344691
v -0.115698 8.873080 0.498957
v -0.004730 8.873080 0.634172
v 0.130485 8.873080 0.745141
v 0.284751 8.873080 0.827598
v 0.452140 8.873080 0.878374
v 0.772805 9.130147 0.795909
v 0.615344 9.130147 0.811417
v 0.924216 9.130147 0.749979
v 1.063756 9.130147 0.675393
v 1.186065 9.130147 0.575017
v 1.286441 9.130147 0.452708
v 1.361027 9.130147 0.313168
v 1.406957 9.130147 0.161757
v 1.422465 9.130147 0.004296
v 1.406957 9.130147 -0.153166
v 1.361027 9.130147 -0.304576
v 1.286441 9.130147 -0.444117
v 1.186065 9.130147 -0.566425
v 1.063757 9.130147 -0.666801
v 0.924216 9.130147 -0.741387
v 0.772806 9.130147 -0.787317
v 0.615344 9.130147 -0.802826
v 0.457882 9.130147 -0.787317
v 0.306472 9.130147 -0.741387
v 0.166931 9.130147 -0.666801
v 0.044623 9.130147 -0.566425
v -0.055753 9.130147 -0.444117
v -0.130339 9.130147 -0.304576
v -0.176269 9.130147 -0.153166
v -0.191777 9.130147 0.004296
v -0.176269 9.130147 0.161757
v -0.130339 9.130147 0.313168
v -0.055753 9.130147 0.452708
v 0.044623 9.130147 0.575017
v 0.166931 9.130147 0.675393
v 0.306472 9.130147 0.749979
v 0.457882 9.130147 0.795909
v 0.772805 9.018402 0.795909
v 0.615344 9.018402 0.811417
v 0.924216 9.018402 0.749979
v 1.063756 9.018402 0.675393
v 1.186065 9.018402 0.575017
v 1.286441 9.018402 0.452708
v 1.361027 9.018402 0.313168
v 1.406957 9.018402 0.161757
v 1.422465 9.018402 0.004296
v 1.406957 9.018402 -0.153166
v 1.361027 9.018402 -0.304576
v 1.286441 9.018402 -0.444117
v 1.186065 9.018402 -0.566425
v 1.063757 9.018402 -0.666801
v 0.924216 9.018402 -0.741387
v 0.772806 9.018402 -0.787317
v 0.615344 9.018402 -0.802826
v 0.457882 9.018402 -0.787317
v 0.306472 9.018402 -0.741387
v 0.166931 9.018402 -0.666801
v 0.044623 9.018402 -0.566425
v -0.055753 9.018402 -0.444117
v -0.130339 9.018402 -0.304576
v -0.176269 9.018402 -0.153166
v -0.191777 9.018402 0.004296
v -0.176269 9.018402 0.161757
v -0.130339 9.018402 0.313168
v -0.055753 9.018402 0.452708
v 0.044623 9.018402 0.575017
v 0.166931 9.018402 0.675393
v 0.306472 9.018402 0.749979
v 0.457882 9.018402 0.795909
v 0.166931 8.889113 -0.666801
v 0.306472 8.889113 -0.741387
v 0.044623 8.889113 -0.566425
v -0.055753 8.889113 -0.444117
v -0.130339 8.889113 -0.304576
v -0.176269 8.889113 -0.153166
v -0.191777 8.889113 0.004296
v -0.176269 8.889113 0.161757
v -0.130339 8.889113 0.313168
v -0.055753 8.889113 0.452708
v 0.044623 8.889113 0.575017
v 0.166931 8.889113 0.675393
v 0.306472 8.889113 0.749979
v 0.457882 8.889113 0.795909
vn 1.0000 -0.0000 -0.0000
vn 0.0893 -0.0000 0.9960
vn -1.0000 -0.0000 -0.0000
vn 0.0893 -0.0000 -0.9960
vn 0.3619 -0.9322 -0.0000
vn 0.0255 0.9997 -0.0000
vn -1.0000 0.0095 -0.0000
vn -0.5748 0.5822 0.5750
vn -0.5748 0.5822 -0.5750
vn -0.0000 0.0089 1.0000
vn 0.5748 0.5822 0.5750
vn 1.0000 0.0095 -0.0000
vn 0.5748 0.5822 -0.5750
vn -0.0000 0.0089 -1.0000
vn -0.0000 -1.0000 -0.0000
vn -0.0000 -0.0000 1.0000
vn -0.0000 1.0000 -0.0000
vn -0.0000 -0.0000 -1.0000
vn 0.5346 -0.6074 -0.5876
vn 0.5615 0.5766 -0.5935
vn 0.5615 0.5766 0.5935
vn 0.5346 -0.6074 0.5876
vn -0.5928 0.5781 0.5607
vn -0.6194 -0.5443 0.5657
vn -0.5928 0.5781 -0.5607
vn -0.6194 -0.5443 -0.5657
vn 0.2903 -0.0000 -0.9569
vn 0.2903 -0.0000 0.9569
vn -0.6344 -0.0000 0.7730
vn 0.0980 -0.0000 -0.9952
vn 0.4714 -0.0000 0.8819
vn -0.4714 -0.0000 0.8819
vn -0.0980 -0.0000 -0.9952
vn 0.6344 -0.0000 0.7730
vn -0.2903 -0.0000 0.9569
vn -0.2903 -0.0000 -0.9569
vn 0.7730 -0.0000 0.6344
vn -0.0980 -0.0000 0.9952
vn -0.4714 -0.0000 -0.8819
vn 0.8819 -0.0000 0.4714
vn -0.6344 -0.0000 -0.7730
vn 0.9569 -0.0000 0.2903
vn -0.7730 -0.0000 -0.6344
vn 0.9952 -0.0000 0.0980
vn -0.8819 -0.0000 -0.4714
vn 0.9952 -0.0000 -0.0980
vn -0.9569 -0.0000 -0.2903
vn 0.9569 -0.0000 -0.2903
vn -0.9952 -0.0000 -0.0980
vn 0.8819 -0.0000 -0.4714
vn -0.9952 -0.0000 0.0980
vn 0.7730 -0.0000 -0.6344
vn -0.9569 -0.0000 0.2903
vn 0.6344 -0.0000 -0.7730
vn -0.8819 -0.0000 0.4714
vn 0.4714 -0.0000 -0.8819
vn 0.0980 -0.0000 0.9952
vn -0.7730 -0.0000 0.6344
vn -0.0771 0.9950 0.0632
vn -0.0233 -0.9997 -0.0096
vn -0.0232 -0.9997 -0.0097
vn -0.0245 -0.9997 -0.0049
vn -0.0245 -0.9997 -0.0048
vn -0.0642 0.9949 0.0782
vn -0.0249 -0.9997 -0.0000
vn -0.0485 0.9947 0.0908
vn -0.0244 -0.9997 0.0049
vn -0.0244 -0.9997 0.0048
vn -0.0305 0.9945 0.1006
vn -0.0231 -0.9997 0.0096
vn -0.0231 -0.9997 0.0095
vn -0.0105 0.9942 0.1071
vn -0.0209 -0.9997 0.0141
vn -0.0210 -0.9997 0.0139
vn 0.0108 0.9939 0.1097
vn -0.0180 -0.9997 0.0181
vn -0.0181 -0.9997 0.0180
vn 0.0328 0.9936 0.1082
vn 0.0920 -0.9808 0.1721
vn -0.0165 -0.9997 0.0205
vn -0.0122 -0.9997 0.0227
vn 0.0546 0.9933 0.1022
vn 0.6453 -0.7636 -0.0222
vn 0.1267 -0.9799 0.1543
vn -0.0124 -0.9996 0.0238
vn -0.0078 -0.9997 0.0251
vn 0.0753 0.9929 0.0917
vn 0.6372 -0.7636 -0.1041
vn 0.1575 -0.9790 0.1293
vn -0.0077 -0.9996 0.0264
vn -0.0028 -0.9996 0.0267
vn 0.0937 0.9926 0.0769
vn 0.1828 -0.9783 0.0977
vn -0.0025 -0.9996 0.0281
vn 0.0026 -0.9996 0.0273
vn 0.1087 0.9924 0.0581
vn 0.2009 -0.9777 0.0609
vn 0.0028 -0.9996 0.0280
vn 0.1196 0.9922 0.0363
vn 0.2106 -0.9774 0.0207
vn 0.1254 0.9920 0.0123
vn 0.2112 -0.9772 -0.0208
vn 0.1257 0.9920 -0.0124
vn 0.2025 -0.9774 -0.0614
vn 0.1205 0.9920 -0.0366
vn 0.1852 -0.9777 -0.0990
vn 0.1102 0.9922 -0.0589
vn -0.0108 0.9939 -0.1097
vn 0.1602 -0.9783 -0.1315
vn 0.0953 0.9924 -0.0782
vn -0.0312 0.9942 -0.1029
vn 0.1293 -0.9790 -0.1575
vn 0.0769 0.9926 -0.0937
vn -0.0496 0.9945 -0.0927
vn 0.0941 -0.9799 -0.1761
vn 0.0559 0.9929 -0.1046
vn -0.0653 0.9947 -0.0796
vn 0.0566 -0.9808 -0.1867
vn 0.0336 0.9933 -0.1109
vn -0.0782 0.9949 -0.0642
vn 0.0111 0.9936 -0.1125
vn -0.0879 0.9950 -0.0470
vn -0.0028 -0.9996 -0.0280
vn -0.0079 -0.9996 -0.0270
vn -0.0028 -0.9996 -0.0273
vn -0.0944 0.9951 -0.0286
vn -0.0127 -0.9996 -0.0244
vn -0.0080 -0.9996 -0.0256
vn -0.0975 0.9952 -0.0096
vn -0.0168 -0.9996 -0.0209
vn -0.0126 -0.9997 -0.0231
vn -0.0973 0.9952 0.0096
vn -0.0202 -0.9997 -0.0168
vn -0.0165 -0.9997 -0.0199
vn -0.0938 0.9952 0.0284
vn -0.0212 -0.9997 -0.0143
vn -0.0197 -0.9997 -0.0160
vn -0.0870 0.9951 0.0465
vt 0.375000 0.000000
vt 0.625000 0.000000
vt 0.625000 0.250000
vt 0.375000 0.250000
vt 0.625000 0.500000
vt 0.375000 0.500000
vt 0.625000 0.750000
vt 0.375000 0.750000
vt 0.625000 1.000000
vt 0.375000 1.000000
vt 0.125000 0.500000
vt 0.125000 0.750000
vt 0.875000 0.500000
vt 0.875000 0.750000
vt 0.699562 0.574562
vt 0.800438 0.574562
vt 0.800438 0.675438
vt 0.699562 0.675438
vt 0.870608 0.745608
vt 0.870608 0.504392
vt 0.629392 0.504392
vt 0.629392 0.745608
vt 0.806445 0.681445
vt 0.806445 0.568555
vt 0.693555 0.568555
vt 0.693555 0.681445
vt 0.000000 0.000000
s 1
usemtl Hoop1
f 7/6/3 8/5/3 6/7/3 5/8/3
f 11/11/15 9/12/15 13/8/15 15/6/15
f 17/1/15 25/2/15 26/3/15 19/4/15
f 19/4/16 26/3/16 27/5/16 23/6/16
f 23/6/17 27/5/17 28/7/17 21/8/17
f 21/8/18 28/7/18 25/9/18 17/10/18
f 19/11/3 23/6/3 21/8/3 17/12/3
f 24/15/1 20/16/1 18/17/1 22/18/1
f 33/23/1 34/24/1 30/20/1 29/19/1
f 34/24/1 35/25/1 31/21/1 30/20/1
f 35/25/1 36/26/1 32/22/1 31/21/1
f 36/26/1 33/23/1 29/19/1 32/22/1
f 37/1/19 38/2/20 40/3/21 39/4/22
usemtl Hoop2
f 29/19/1 30/20/1 26/13/1 25/14/1
f 30/20/1 31/21/1 27/5/1 26/13/1
f 31/21/1 32/22/1 28/7/1 27/5/1
f 32/22/1 29/19/1 25/14/1 28/7/1
f 18/17/1 20/16/1 34/24/1 33/23/1
f 20/16/1 24/15/1 35/25/1 34/24/1
f 24/15/1 22/18/1 36/26/1 35/25/1
f 22/18/1 18/17/1 33/23/1 36/26/1
usemtl Hoop3
f 9/1/7 11/4/7 12/3/8 10/2/9
f 11/4/10 15/6/10 16/5/11 12/3/8
f 15/6/12 13/8/12 14/7/13 16/5/11
f 13/8/14 9/10/14 10/9/9 14/7/13
f 16/5/11 14/7/13 10/14/9 12/13/8
f 39/4/22 40/3/21 44/5/23 43/6/24
f 43/6/24 44/5/23 42/7/25 41/8/26
f 41/8/26 42/7/25 38/9/20 37/10/19
f 39/11/22 43/6/24 41/8/26 37/12/19
f 44/5/23 40/13/21 38/14/20 42/7/25
usemtl Hoop4
f 1/1/1 2/2/1 4/3/1 3/4/1
f 3/4/2 4/3/2 8/5/2 7/6/2
f 5/8/4 6/7/4 2/9/4 1/10/4
f 3/11/5 7/6/5 5/8/5 1/12/5
f 8/5/6 4/13/6 2/14/6 6/7/6
usemtl Rim
f 60/27/27 59/27/27 91/27/27 92/27/27
f 47/27/28 46/27/28 78/27/28 79/27/28
f 74/27/29 73/27/29 105/27/29 106/27/29
f 61/27/30 60/27/30 92/27/30 93/27/30
f 48/27/31 47/27/31 79/27/31 80/27/31
f 75/27/32 74/27/32 106/27/32 107/27/32
f 62/27/33 61/27/33 93/27/33 94/27/33
f 49/27/34 48/27/34 80/27/34 81/27/34
f 76/27/35 75/27/35 107/27/35 108/27/35
f 63/27/36 62/27/36 94/27/36 95/27/36
f 50/27/37 49/27/37 81/27/37 82/27/37
f 45/27/38 76/27/38 108/27/38 77/27/38
f 64/27/39 63/27/39 95/27/39 96/27/39
f 51/27/40 50/27/40 82/27/40 83/27/40
f 65/27/41 64/27/41 96/27/41 97/27/41
f 52/27/42 51/27/42 83/27/42 84/27/42
f 66/27/43 65/27/43 97/27/43 98/27/43
f 53/27/44 52/27/44 84/27/44 85/27/44
f 67/27/45 66/27/45 98/27/45 99/27/45
f 54/27/46 53/27/46 85/27/46 86/27/46
f 68/27/47 67/27/47 99/27/47 100/27/47
f 55/27/48 54/27/48 86/27/48 87/27/48
f 69/27/49 68/27/49 100/27/49 101/27/49
f 56/27/50 55/27/50 87/27/50 88/27/50
f 70/27/51 69/27/51 101/27/51 102/27/51
f 57/27/52 56/27/52 88/27/52 89/27/52
f 71/27/53 70/27/53 102/27/53 103/27/53
f 58/27/54 57/27/54 89/27/54 90/27/54
f 72/27/55 71/27/55 103/27/55 104/27/55
f 59/27/56 58/27/56 90/27/56 91/27/56
f 46/27/57 45/27/57 77/27/57 78/27/57
f 73/27/58 72/27/58 104/27/58 105/27/58
f 102/27/51 101/27/51 115/27/51 116/27/51
f 103/27/53 102/27/53 116/27/53 117/27/53
f 96/27/39 95/27/39 109/27/39 110/27/39
f 104/27/55 103/27/55 117/27/55 118/27/55
f 97/27/41 96/27/41 110/27/41 111/27/41
f 105/27/58 104/27/58 118/27/58 119/27/58
f 98/27/43 97/27/43 111/27/43 112/27/43
f 106/27/29 105/27/29 119/27/29 120/27/29
f 99/27/45 98/27/45 112/27/45 113/27/45
f 107/27/32 106/27/32 120/27/32 121/27/32
f 100/27/47 99/27/47 113/27/47 114/27/47
f 108/27/35 107/27/35 121/27/35 122/27/35
f 101/27/49 100/27/49 114/27/49 115/27/49
f 94/27/36 109/27/36 95/27/36
f 108/27/38 122/27/38 77/27/38
f 138/27/35 170/27/35 169/27/35 137/27/35
f 125/27/36 157/27/36 155/27/36 123/27/36
f 152/27/54 184/27/54 183/27/54 151/27/54
f 139/27/38 171/27/38 170/27/38 138/27/38
f 126/27/39 158/27/39 157/27/39 125/27/39
f 153/27/56 185/27/56 184/27/56 152/27/56
f 140/27/57 172/27/57 171/27/57 139/27/57
f 127/27/41 159/27/41 158/27/41 126/27/41
f 154/27/27 186/27/27 185/27/27 153/27/27
f 141/27/28 173/27/28 172/27/28 140/27/28
f 128/27/43 160/27/43 159/27/43 127/27/43
f 124/27/30 156/27/30 186/27/30 154/27/30
f 142/27/31 174/27/31 173/27/31 141/27/31
f 129/27/45 161/27/45 160/27/45 128/27/45
f 143/27/34 175/27/34 174/27/34 142/27/34
f 130/27/47 162/27/47 161/27/47 129/27/47
f 144/27/37 176/27/37 175/27/37 143/27/37
f 131/27/49 163/27/49 162/27/49 130/27/49
f 145/27/40 177/27/40 176/27/40 144/27/40
f 132/27/51 164/27/51 163/27/51 131/27/51
f 146/27/42 178/27/42 177/27/42 145/27/42
f 133/27/53 165/27/53 164/27/53 132/27/53
f 147/27/44 179/27/44 178/27/44 146/27/44
f 134/27/55 166/27/55 165/27/55 133/27/55
f 148/27/46 180/27/46 179/27/46 147/27/46
f 135/27/58 167/27/58 166/27/58 134/27/58
f 149/27/48 181/27/48 180/27/48 148/27/48
f 136/27/29 168/27/29 167/27/29 135/27/29
f 150/27/50 182/27/50 181/27/50 149/27/50
f 137/27/32 169/27/32 168/27/32 136/27/32
f 123/27/33 155/27/33 156/27/33 124/27/33
f 151/27/52 183/27/52 182/27/52 150/27/52
f 180/27/46 194/27/46 193/27/46 179/27/46
f 181/27/48 195/27/48 194/27/48 180/27/48
f 174/27/31 187/27/31 188/27/31 173/27/31
f 182/27/50 196/27/50 195/27/50 181/27/50
f 175/27/34 189/27/34 187/27/34 174/27/34
f 183/27/52 197/27/52 196/27/52 182/27/52
f 176/27/37 190/27/37 189/27/37 175/27/37
f 184/27/54 198/27/54 197/27/54 183/27/54
f 177/27/40 191/27/40 190/27/40 176/27/40
f 185/27/56 199/27/56 198/27/56 184/27/56
f 178/27/42 192/27/42 191/27/42 177/27/42
f 186/27/27 200/27/27 199/27/27 185/27/27
f 179/27/44 193/27/44 192/27/44 178/27/44
f 172/27/28 173/27/28 188/27/28
f 186/27/30 156/27/30 200/27/30
f 57/27/59 135/27/59 134/27/59 56/27/59
f 83/27/60 161/27/61 162/27/62 84/27/63
f 58/27/64 136/27/64 135/27/64 57/27/64
f 84/27/63 162/27/62 163/27/65 85/27/65
f 59/27/66 137/27/66 136/27/66 58/27/66
f 85/27/65 163/27/65 164/27/67 86/27/68
f 60/27/69 138/27/69 137/27/69 59/27/69
f 86/27/68 164/27/67 165/27/70 87/27/71
f 61/27/72 139/27/72 138/27/72 60/27/72
f 87/27/71 165/27/70 166/27/73 88/27/74
f 62/27/75 140/27/75 139/27/75 61/27/75
f 88/27/74 166/27/73 167/27/76 89/27/77
f 63/27/78 141/27/78 140/27/78 62/27/78
f 109/27/79 188/27/79 187/27/79 110/27/79
f 89/27/77 167/27/76 168/27/80 90/27/81
f 64/27/82 142/27/82 141/27/82 63/27/82
f 94/27/83 172/27/83 188/27/83 109/27/83
f 110/27/84 187/27/84 189/27/84 111/27/84
f 90/27/81 168/27/80 169/27/85 91/27/86
f 65/27/87 143/27/87 142/27/87 64/27/87
f 122/27/88 200/27/88 156/27/88 77/27/88
f 111/27/89 189/27/89 190/27/89 112/27/89
f 91/27/86 169/27/85 170/27/90 92/27/91
f 66/27/92 144/27/92 143/27/92 65/27/92
f 112/27/93 190/27/93 191/27/93 113/27/93
f 92/27/91 170/27/90 171/27/94 93/27/95
f 67/27/96 145/27/96 144/27/96 66/27/96
f 113/27/97 191/27/97 192/27/97 114/27/97
f 93/27/95 171/27/94 172/27/98 94/27/98
f 68/27/99 146/27/99 145/27/99 67/27/99
f 114/27/100 192/27/100 193/27/100 115/27/100
f 69/27/101 147/27/101 146/27/101 68/27/101
f 115/27/102 193/27/102 194/27/102 116/27/102
f 70/27/103 148/27/103 147/27/103 69/27/103
f 116/27/104 194/27/104 195/27/104 117/27/104
f 71/27/105 149/27/105 148/27/105 70/27/105
f 117/27/106 195/27/106 196/27/106 118/27/106
f 72/27/107 150/27/107 149/27/107 71/27/107
f 46/27/108 123/27/108 124/27/108 45/27/108
f 118/27/109 196/27/109 197/27/109 119/27/109
f 73/27/110 151/27/110 150/27/110 72/27/110
f 47/27/111 125/27/111 123/27/111 46/27/111
f 119/27/112 197/27/112 198/27/112 120/27/112
f 74/27/113 152/27/113 151/27/113 73/27/113
f 48/27/114 126/27/114 125/27/114 47/27/114
f 120/27/115 198/27/115 199/27/115 121/27/115
f 75/27/116 153/27/116 152/27/116 74/27/116
f 49/27/117 127/27/117 126/27/117 48/27/117
f 121/27/118 199/27/118 200/27/118 122/27/118
f 76/27/119 154/27/119 153/27/119 75/27/119
f 50/27/120 128/27/120 127/27/120 49/27/120
f 45/27/121 124/27/121 154/27/121 76/27/121
f 51/27/122 129/27/122 128/27/122 50/27/122
f 77/27/123 156/27/123 155/27/124 78/27/125
f 52/27/126 130/27/126 129/27/126 51/27/126
f 78/27/125 155/27/124 157/27/127 79/27/128
f 53/27/129 131/27/129 130/27/129 52/27/129
f 79/27/128 157/27/127 158/27/130 80/27/131
f 54/27/132 132/27/132 131/27/132 53/27/132
f 80/27/131 158/27/130 159/27/133 81/27/134
f 55/27/135 133/27/135 132/27/135 54/27/135
f 81/27/134 159/27/133 160/27/136 82/27/137
f 56/27/138 134/27/138 133/27/138 55/27/138
f 82/27/137 160/27/136 161/27/61 83/27/60
